<?xml version="1.0" encoding="UTF-8" standalone="no"?>
<!-- Created with Inkscape (http://www.inkscape.org/) -->

<svg
   width="78.378906mm"
   height="106.24414mm"
   viewBox="0 0 78.378906 106.24414"
   version="1.1"
   id="svg3961"
   inkscape:version="1.1 (c68e22c387, 2021-05-23)"
   sodipodi:docname="drawing.svg"
   xmlns:inkscape="http://www.inkscape.org/namespaces/inkscape"
   xmlns:sodipodi="http://sodipodi.sourceforge.net/DTD/sodipodi-0.dtd"
   xmlns="http://www.w3.org/2000/svg"
   xmlns:svg="http://www.w3.org/2000/svg">
  <sodipodi:namedview
     id="namedview3963"
     pagecolor="#ffffff"
     bordercolor="#111111"
     borderopacity="1"
     inkscape:pageshadow="0"
     inkscape:pageopacity="0"
     inkscape:pagecheckerboard="1"
     inkscape:document-units="mm"
     showgrid="false"
     inkscape:zoom="0.5499273"
     inkscape:cx="520.06874"
     inkscape:cy="728.27808"
     inkscape:window-width="2560"
     inkscape:window-height="1377"
     inkscape:window-x="1912"
     inkscape:window-y="-8"
     inkscape:window-maximized="1"
     inkscape:current-layer="layer1" />
  <defs
     id="defs3958" />
  <g
     inkscape:label="Layer 1"
     inkscape:groupmode="layer"
     id="layer1"
     transform="translate(-0.746432,-0.477476)">
    <g
       id="rect4132"
       inkscape:export-filename="D:\GitFolder\WORKING_PROJECTS\_react\deepwork-demo\public\bitmap.png"
       inkscape:export-xdpi="1"
       inkscape:export-ydpi="1" />
    <g
       id="rect4132-0"
       inkscape:export-filename="D:\GitFolder\WORKING_PROJECTS\_react\deepwork-demo\public\bitmap.png"
       inkscape:export-xdpi="1"
       inkscape:export-ydpi="1" />
    <g
       id="rect4132-0-3"
       inkscape:export-filename="D:\GitFolder\WORKING_PROJECTS\_react\deepwork-demo\public\bitmap.png"
       inkscape:export-xdpi="1"
       inkscape:export-ydpi="1" />
    <g
       id="rect4132-0-3-9"
       inkscape:transform-center-x="12.587629"
       inkscape:transform-center-y="10.546392"
       inkscape:export-filename="D:\GitFolder\WORKING_PROJECTS\_react\deepwork-demo\public\bitmap.png"
       inkscape:export-xdpi="1"
       inkscape:export-ydpi="1" />
    <g
       id="rect4132-0-3-9-7"
       inkscape:transform-center-x="12.587629"
       inkscape:transform-center-y="10.546392"
       inkscape:export-filename="D:\GitFolder\WORKING_PROJECTS\_react\deepwork-demo\public\bitmap.png"
       inkscape:export-xdpi="1"
       inkscape:export-ydpi="1" />
    <g
       id="rect4132-0-3-9-7-2-8"
       inkscape:transform-center-x="12.587629"
       inkscape:transform-center-y="10.546392"
       inkscape:export-filename="D:\GitFolder\WORKING_PROJECTS\_react\deepwork-demo\public\bitmap.png"
       inkscape:export-xdpi="1"
       inkscape:export-ydpi="1" />
    <g
       id="rect4132-0-3-9-7-2-8-7"
       inkscape:transform-center-x="12.587629"
       inkscape:transform-center-y="10.546392"
       inkscape:export-filename="D:\GitFolder\WORKING_PROJECTS\_react\deepwork-demo\public\bitmap.png"
       inkscape:export-xdpi="1"
       inkscape:export-ydpi="1" />
    <g
       id="rect4132-0-3-9-7-2-8-7-7"
       inkscape:transform-center-x="12.587629"
       inkscape:transform-center-y="10.546392"
       inkscape:export-filename="D:\GitFolder\WORKING_PROJECTS\_react\deepwork-demo\public\bitmap.png"
       inkscape:export-xdpi="1"
       inkscape:export-ydpi="1" />
    <g
       id="rect4132-0-3-9-7-2-8-7-7-5"
       inkscape:transform-center-x="12.587629"
       inkscape:transform-center-y="10.546392"
       inkscape:export-filename="D:\GitFolder\WORKING_PROJECTS\_react\deepwork-demo\public\bitmap.png"
       inkscape:export-xdpi="1"
       inkscape:export-ydpi="1"
       transform="translate(-34.159818,-42.33893)">
      <path
         id="path4684"
         style="color:#000000;fill:#d40000;-inkscape-stroke:none"
         d="m 63.339844,72.839844 c -0.178373,0 -0.324219,0.145846 -0.324219,0.324218 v 22.925782 c 0,0.178373 0.145846,0.324219 0.324219,0.324218 h 22.246093 c 0.178373,0 0.324219,-0.145845 0.324219,-0.324218 V 73.164062 c 0,-0.178372 -0.145846,-0.324218 -0.324219,-0.324218 z m 0,0.09961 h 22.246093 c 0.124703,0 0.222657,0.09991 0.222657,0.224609 v 22.925782 c 0,0.124702 -0.09795,0.224609 -0.222657,0.224609 H 63.339844 c -0.124703,0 -0.22461,-0.09991 -0.22461,-0.224609 V 73.164062 c 0,-0.124702 0.09991,-0.224609 0.22461,-0.224608 z m -5.83e-4,-0.04946 h 22.246748 c 0.151538,0 0.273534,0.121996 0.273534,0.273534 v 22.927156 c 0,0.151538 -0.121996,0.273534 -0.273534,0.273534 H 63.339261 c -0.151538,0 -0.273534,-0.121996 -0.273534,-0.273534 V 73.163526 c 0,-0.151538 0.121996,-0.273534 0.273534,-0.273534 z M 90.595703,55.160156 c -0.178373,0 -0.324219,0.143893 -0.324219,0.322266 v 22.927734 c 0,0.178373 0.145846,0.324219 0.324219,0.324219 H 112.8418 c 0.17837,0 0.32422,-0.145846 0.32422,-0.324219 V 55.482422 c 0,-0.178373 -0.14585,-0.322266 -0.32422,-0.322266 z m 0,0.09961 H 112.8418 c 0.1247,0 0.22461,0.09795 0.22461,0.222656 v 22.927734 c 0,0.124703 -0.0999,0.22461 -0.22461,0.22461 H 90.595703 c -0.124703,0 -0.224609,-0.09991 -0.224609,-0.22461 V 55.482422 c 0,-0.124703 0.09991,-0.222656 0.224609,-0.222656 z m -4.98e-4,-0.05016 h 22.246745 c 0.15154,0 0.27354,0.121996 0.27354,0.273534 V 78.4103 c 0,0.151538 -0.122,0.273534 -0.27354,0.273534 H 90.595205 c -0.151538,0 -0.273534,-0.121996 -0.273534,-0.273534 V 55.483144 c 0,-0.151538 0.121996,-0.273534 0.273534,-0.273534 z m 0.119639,32.425156 c -0.178373,0 -0.322266,0.145845 -0.322266,0.324218 v 22.92774 c 0,0.17837 0.143893,0.32226 0.322266,0.32226 h 22.248046 c 0.17837,0 0.32227,-0.14389 0.32227,-0.32226 V 87.958984 c 0,-0.178373 -0.1439,-0.324218 -0.32227,-0.324218 z m 0,0.101562 h 22.248046 c 0.1247,0 0.22266,0.09795 0.22266,0.222656 v 22.92774 c 0,0.1247 -0.098,0.22265 -0.22266,0.22266 H 90.714844 c -0.124703,0 -0.222656,-0.098 -0.222657,-0.22266 V 87.958984 c 0,-0.124702 0.09795,-0.222656 0.222657,-0.222656 z m 6.38e-4,-0.05084 h 22.246748 c 0.15154,0 0.27353,0.121997 0.27353,0.273535 v 22.927151 c 0,0.15154 -0.12199,0.27354 -0.27353,0.27354 H 90.715482 c -0.151538,0 -0.273534,-0.122 -0.273534,-0.27354 V 87.959028 c 0,-0.151538 0.121996,-0.273535 0.273534,-0.273535 z m -6.38e-4,26.412166 c -0.178373,0 -0.322266,0.14389 -0.322266,0.32226 v 22.92774 c 0,0.17837 0.143893,0.32421 0.322266,0.32421 h 22.248046 c 0.17837,0 0.32227,-0.14584 0.32227,-0.32421 v -22.92774 c 0,-0.17837 -0.1439,-0.32226 -0.32227,-0.32226 z m 0,0.0996 h 22.248046 c 0.1247,0 0.22266,0.0979 0.22266,0.22265 v 22.92774 c 0,0.1247 -0.098,0.22461 -0.22266,0.22461 H 90.714844 c -0.124703,0 -0.222657,-0.0999 -0.222657,-0.22461 V 114.4199 c 0,-0.1247 0.09795,-0.22265 0.222657,-0.22265 z m 6.23e-4,-0.0499 h 22.246743 c 0.15154,0 0.27354,0.122 0.27354,0.27354 v 22.92715 c 0,0.15154 -0.122,0.27354 -0.27354,0.27354 H 90.715467 c -0.151538,0 -0.273534,-0.122 -0.273534,-0.27354 v -22.92715 c 0,-0.15154 0.121996,-0.27354 0.273534,-0.27354 z M 63.253906,99.162109 c -0.178373,0 -0.322265,0.145846 -0.322265,0.324219 v 22.927732 c 0,0.17838 0.143892,0.32227 0.322265,0.32227 H 85.5 c 0.178373,0 0.324219,-0.14389 0.324219,-0.32227 V 99.486328 c 0,-0.178373 -0.145846,-0.324219 -0.324219,-0.324219 z m 0,0.09961 H 85.5 c 0.124703,0 0.224609,0.09991 0.224609,0.224609 v 22.927732 c 0,0.12471 -0.09991,0.22266 -0.224609,0.22266 H 63.253906 c -0.124702,0 -0.222656,-0.0979 -0.222656,-0.22266 V 99.486328 c 0,-0.124703 0.09795,-0.224609 0.222656,-0.224609 z m 2.99e-4,-0.04909 h 22.246747 c 0.151538,0 0.273535,0.121996 0.273535,0.273534 v 22.927147 c 0,0.15154 -0.121997,0.27354 -0.273535,0.27354 H 63.254205 c -0.151538,0 -0.273534,-0.122 -0.273534,-0.27354 V 99.486158 c 0,-0.151538 0.121996,-0.273534 0.273534,-0.273534 z m -0.04327,26.273701 c -0.178372,0 -0.322265,0.14585 -0.322265,0.32422 v 22.92578 c 0,0.17837 0.143893,0.32422 0.322265,0.32422 h 22.248047 c 0.178373,0 0.322266,-0.14585 0.322266,-0.32422 v -22.92578 c 0,-0.17838 -0.143893,-0.32422 -0.322266,-0.32422 z m 0,0.0996 h 22.248047 c 0.124703,0 0.222657,0.0999 0.222657,0.22461 v 22.92578 c 0,0.1247 -0.09795,0.22461 -0.222657,0.22461 H 63.210937 c -0.124702,0 -0.222656,-0.0999 -0.222656,-0.22461 v -22.92578 c 0,-0.12471 0.09795,-0.22461 0.222656,-0.22461 z m 7.42e-4,-0.0498 h 22.246747 c 0.151538,0 0.273534,0.12199 0.273534,0.27353 v 22.92716 c 0,0.15153 -0.121996,0.27353 -0.273534,0.27353 H 63.211679 c -0.151538,0 -0.273534,-0.122 -0.273534,-0.27353 v -22.92716 c 0,-0.15154 0.121996,-0.27353 0.273534,-0.27353 z m -27.42457,-0.20211 c -0.178373,0 -0.324218,0.1439 -0.324218,0.32227 v 22.92773 c 0,0.17838 0.145845,0.32422 0.324218,0.32422 h 22.246094 c 0.178373,0 0.324219,-0.14584 0.324219,-0.32422 V 125.6563 c 0,-0.17837 -0.145846,-0.32228 -0.324219,-0.32228 z m 0,0.0996 h 22.246094 c 0.124703,0 0.222656,0.098 0.222656,0.22266 v 22.92773 c 0,0.12471 -0.09795,0.22266 -0.222656,0.22266 H 35.787109 c -0.124702,0 -0.224609,-0.0979 -0.224609,-0.22266 v -22.92773 c 0,-0.1247 0.09991,-0.22266 0.224609,-0.22266 z m -8.76e-4,-0.0503 h 22.246748 c 0.151537,0 0.273534,0.122 0.273534,0.27354 v 22.92715 c 0,0.15154 -0.121997,0.27354 -0.273534,0.27354 H 35.786233 c -0.151538,0 -0.273534,-0.122 -0.273534,-0.27354 v -22.92715 c 0,-0.15153 0.121996,-0.27353 0.273534,-0.27353 z M 35.654297,92.060547 c -0.178373,0 -0.322266,0.145846 -0.322266,0.324219 v 22.925784 c 0,0.17837 0.143893,0.32422 0.322266,0.32422 h 22.248047 c 0.178373,0 0.322265,-0.14585 0.322265,-0.32422 V 92.384766 c 0,-0.178373 -0.143892,-0.324219 -0.322265,-0.324219 z m 0,0.09961 h 22.248047 c 0.124702,0 0.222656,0.09991 0.222656,0.22461 v 22.925783 c 0,0.1247 -0.09795,0.22461 -0.222656,0.22461 H 35.654297 c -0.124703,0 -0.222656,-0.0999 -0.222656,-0.22461 V 92.384766 c 0,-0.124703 0.09795,-0.22461 0.222656,-0.224609 z m 6.84e-4,-0.04933 h 22.246747 c 0.151538,0 0.273534,0.121996 0.273534,0.273534 v 22.927149 c 0,0.15154 -0.121996,0.27354 -0.273534,0.27354 H 35.654981 c -0.151538,0 -0.273534,-0.122 -0.273534,-0.27354 V 92.384359 c 0,-0.151538 0.121996,-0.273534 0.273534,-0.273534 z M 35.230469,42.816406 c -0.178373,0 -0.324219,0.143893 -0.324219,0.322266 v 22.927734 c 0,0.178373 0.145846,0.324219 0.324219,0.324219 h 22.246093 c 0.178373,0 0.324219,-0.145846 0.324219,-0.324219 V 43.138672 c 0,-0.178373 -0.145846,-0.322266 -0.324219,-0.322266 z m 0,0.09961 h 22.246093 c 0.124703,0 0.222657,0.09795 0.222657,0.222656 v 22.927734 c 0,0.124703 -0.09795,0.22461 -0.222657,0.22461 H 35.230469 c -0.124703,0 -0.22461,-0.09991 -0.22461,-0.22461 V 43.138672 c 0,-0.124703 0.09991,-0.222656 0.22461,-0.222656 z m -7.5e-4,-0.05004 h 22.246747 c 0.151538,0 0.273534,0.121996 0.273534,0.273534 v 22.927156 c 0,0.151538 -0.121996,0.273534 -0.273534,0.273534 H 35.229719 c -0.151538,0 -0.273535,-0.121996 -0.273535,-0.273534 V 43.139512 c 0,-0.151538 0.121997,-0.273534 0.273535,-0.273534 z" />
    </g>
  </g>
</svg>
